<?xml version="1.0" standalone="no"?>
<!DOCTYPE svg PUBLIC "-//W3C//DTD SVG 20010904//EN"
 "http://www.w3.org/TR/2001/REC-SVG-20010904/DTD/svg10.dtd">
<svg version="1.0" xmlns="http://www.w3.org/2000/svg"
 width="700.000000pt" height="700.000000pt" viewBox="0 0 700.000000 700.000000"
 preserveAspectRatio="xMidYMid meet">
<metadata>
Created by potrace 1.14, written by Peter Selinger 2001-2017
</metadata>
<g transform="translate(0.000000,700.000000) scale(0.100000,-0.100000)"
fill="#000000" stroke="none">
<path d="M6020 6557 c-3 -3 -39 -8 -80 -11 -141 -14 -234 -29 -420 -71 -602
-134 -1371 -472 -1955 -860 -143 -95 -380 -273 -500 -375 -221 -188 -480 -464
-649 -692 l-71 -96 -185 1 c-209 2 -287 -4 -430 -33 -374 -76 -667 -282 -925
-650 -120 -171 -279 -556 -331 -803 -37 -177 -40 -216 -19 -260 19 -41 84 -78
125 -72 25 3 98 12 180 21 80 8 216 23 260 29 19 2 62 7 95 10 81 8 143 15
185 20 19 3 60 7 90 10 30 3 71 8 90 10 67 8 235 27 266 30 l31 3 2 -62 c5
-195 19 -269 62 -331 15 -22 139 -151 276 -287 257 -256 289 -281 379 -292 21
-3 89 -8 149 -12 111 -6 129 -10 121 -22 -2 -4 -7 -39 -11 -77 -3 -39 -8 -81
-10 -95 -3 -14 -7 -56 -11 -93 -3 -37 -7 -77 -9 -88 -2 -11 -7 -52 -11 -92 -9
-101 -10 -116 -18 -172 -4 -27 -8 -70 -11 -95 -2 -25 -9 -90 -15 -145 -17
-139 -17 -139 -35 -337 -3 -35 27 -83 67 -108 36 -23 73 -22 203 5 226 46 448
121 635 214 114 57 272 150 290 170 3 4 31 25 63 49 222 165 422 454 498 721
47 164 63 305 62 541 l-1 185 95 70 c296 218 613 531 859 850 338 438 645 989
855 1538 93 242 193 566 225 732 2 11 10 54 19 95 48 243 68 507 51 680 -19
187 -31 212 -111 226 -22 3 -49 8 -60 11 -26 6 -360 15 -365 10z m-1355 -1441
c202 -61 356 -205 436 -409 28 -70 34 -115 33 -237 -1 -166 -54 -302 -166
-425 -132 -144 -290 -213 -484 -213 -152 0 -286 46 -404 139 -69 55 -91 79
-145 160 -70 105 -99 201 -99 334 -1 133 5 175 40 263 56 141 175 271 308 336
85 42 105 50 161 61 16 3 31 8 33 10 12 12 234 -3 287 -19z"/>
<path d="M1425 2395 c-230 -49 -423 -187 -517 -372 -63 -123 -134 -351 -162
-523 -3 -19 -8 -46 -11 -60 -3 -14 -7 -41 -10 -60 -3 -19 -7 -46 -9 -59 -3
-13 -8 -49 -11 -80 -4 -31 -8 -63 -10 -71 -2 -8 -7 -51 -10 -95 -3 -44 -8 -93
-10 -110 -2 -16 -7 -84 -10 -149 -3 -66 -8 -123 -10 -126 -8 -13 13 -29 40
-31 42 -2 228 11 375 27 30 3 71 7 90 9 19 2 53 6 75 9 22 3 72 10 110 16 39
5 81 12 95 15 14 3 41 8 60 11 19 3 43 7 52 10 10 3 30 7 45 10 130 23 351 98
450 152 173 95 318 313 352 529 10 66 2 89 -35 103 -26 10 -49 3 -76 -23 -24
-24 -83 -54 -138 -72 -30 -10 -56 -18 -57 -17 -2 0 -17 -4 -35 -9 -93 -28
-239 -30 -320 -4 -61 20 -138 65 -187 109 -47 43 -108 140 -127 200 -45 147
-9 352 97 543 38 71 40 76 24 99 -8 13 -19 24 -23 25 -4 0 -14 2 -22 3 -8 2
-42 -3 -75 -9z"/>
</g>
</svg>
